<?xml version="1.0" encoding="utf-8"?>
<!-- Generator: Adobe Illustrator 19.0.0, SVG Export Plug-In . SVG Version: 6.00 Build 0)  -->
<!DOCTYPE svg PUBLIC "-//W3C//DTD SVG 1.1//EN" "http://www.w3.org/Graphics/SVG/1.1/DTD/svg11.dtd">
<svg version="1.1" id="Layer_1" xmlns="http://www.w3.org/2000/svg" xmlns:xlink="http://www.w3.org/1999/xlink" x="0px" y="0px"
	 viewBox="0 0 400 67" enable-background="new 0 0 400 67" xml:space="preserve">
<g>
	<g>
		<g>
			<g>
				<path fill="none" stroke="#D2D4D2" stroke-width="0.5" d="M351.6,0"/>
			</g>
		</g>
	</g>
	<g>
		<g>
			<g>
				<path fill="none" stroke="#D2D4D2" stroke-width="0.5" d="M41.3,50.7"/>
			</g>
		</g>
	</g>
	<g>
		<g>
			<g>
				<g>
					<path fill="#D2D4D2" d="M379.1,66.7h4.9V56.3l4.6,7h0.1l4.6-7.1v10.4h5V48.6H393l-4.3,7l-4.3-7h-5.3V66.7z M366.1,57.2v-4.3
						h3.3c1.7,0,2.7,0.7,2.7,2.1v0.1c0,1.3-1,2.1-2.7,2.1H366.1z M361.1,66.7h5v-5.5h2.2l3.6,5.5h5.8l-4.3-6.3
						c2.2-1,3.7-2.8,3.7-5.6v-0.1c0-1.8-0.5-3.2-1.6-4.2c-1.2-1.2-3.1-2-5.9-2h-8.6V66.7z M349.4,62.5c-2.7,0-4.6-2.3-4.6-4.9v-0.1
						c0-2.6,1.8-4.8,4.6-4.8c2.8,0,4.7,2.3,4.7,4.9v0.1C354,60.3,352.2,62.5,349.4,62.5 M349.4,67c5.6,0,9.8-4.2,9.8-9.4v-0.1
						c0-5.2-4.1-9.4-9.7-9.4c-5.6,0-9.8,4.2-9.8,9.4v0.1C339.7,62.9,343.8,67,349.4,67 M324.2,66.7h5v-6.5h8.6V56h-8.6v-3.1h9.5
						v-4.4h-14.5V66.7z M312.2,66.7h5V52.9h5.4v-4.4h-15.9v4.4h5.4V66.7z M296.7,59.5l2-5.1l2,5.1H296.7z M288.7,66.7h5.3l1.3-3.2h7
						l1.3,3.2h5.4l-7.7-18.2h-4.8L288.7,66.7z M274.9,66.7h13.8v-4.4h-8.8V48.6h-5V66.7z M263.1,57.6v-4.8h2.4
						c1.8,0,2.9,0.8,2.9,2.4v0.1c0,1.4-1.1,2.4-2.9,2.4H263.1z M258.1,66.7h5v-5.2h2.5c4.5,0,7.8-2.2,7.8-6.5v-0.1
						c0-4-2.9-6.4-7.5-6.4h-7.8V66.7z"/>
				</g>
			</g>
		</g>
		<g>
			<g>
				<g>
					<path fill="#ED037C" d="M232,66.7h5v-9.9l7.7,9.9h4.4V48.6h-5v9.6l-7.5-9.6H232V66.7z M220.4,62.5c-2.7,0-4.6-2.3-4.6-4.9v-0.1
						c0-2.6,1.8-4.8,4.6-4.8c2.8,0,4.7,2.3,4.7,4.9v0.1C225,60.3,223.1,62.5,220.4,62.5 M220.3,67c5.6,0,9.8-4.2,9.8-9.4v-0.1
						c0-5.2-4.1-9.4-9.7-9.4c-5.6,0-9.8,4.2-9.8,9.4v0.1C210.6,62.9,214.7,67,220.3,67 M203.5,66.7h5V48.6h-5V66.7z M191.4,66.7h5
						V52.9h5.4v-4.4H186v4.4h5.4V66.7z M167.3,66.7h5v-9.9l7.7,9.9h4.4V48.6h-5v9.6l-7.5-9.6h-4.7V66.7z M150.7,66.7h14.7v-4.3h-9.7
						v-2.9h8.7v-4h-8.7v-2.7h9.6v-4.3h-14.6V66.7z M138.7,66.7h5V52.9h5.4v-4.4h-15.9v4.4h5.4V66.7z M122.3,66.7h5V52.9h5.4v-4.4
						h-15.9v4.4h5.4V66.7z M106.8,59.5l2-5.1l2,5.1H106.8z M98.8,66.7h5.3l1.3-3.2h7l1.3,3.2h5.4l-7.7-18.2h-4.8L98.8,66.7z"/>
				</g>
			</g>
		</g>
	</g>
	<g>
		<g>
			<g>
				<path fill="#D2D4D2" d="M77.3,66.7h14.7v-4.3h-9.7v-2.9h8.7v-4h-8.7v-2.7h9.6v-4.3H77.3V66.7z M58.2,66.7h5v-6.9h6.4v6.9h5V48.6
					h-5v6.8h-6.4v-6.8h-5V66.7z M46.2,66.7h5V52.9h5.4v-4.4H40.8v4.4h5.4V66.7z"/>
			</g>
		</g>
	</g>
	<g>
		<g>
			<g>
				<g>
					<path fill="#D2D4D2" d="M41.2,22.1V22c0-9.7,7.6-17.7,18-17.7c6.2,0,9.9,1.7,13.5,4.7l-4.7,5.7c-2.6-2.2-5-3.5-9-3.5
						c-5.5,0-9.9,4.9-9.9,10.7V22c0,6.3,4.3,10.9,10.4,10.9c2.7,0,5.2-0.7,7.1-2.1V26H59v-6.5h14.9v14.9c-3.5,3-8.4,5.4-14.6,5.4
						C48.6,39.8,41.2,32.3,41.2,22.1"/>
				</g>
			</g>
		</g>
	</g>
	<g>
		<g>
			<g>
				<polygon fill="#D2D4D2" points="78.2,4.9 104.1,4.9 104.1,11.6 85.7,11.6 85.7,18.6 101.9,18.6 101.9,25.3 85.7,25.3 85.7,32.5 
					104.3,32.5 104.3,39.2 78.2,39.2 				"/>
			</g>
		</g>
	</g>
	<g>
		<g>
			<g>
				<polygon fill="#D2D4D2" points="108.1,4.9 115.1,4.9 131.2,26 131.2,4.9 138.6,4.9 138.6,39.2 132.2,39.2 115.6,17.4 
					115.6,39.2 108.1,39.2 				"/>
			</g>
		</g>
	</g>
	<g>
		<g>
			<g>
				<polygon fill="#D2D4D2" points="143.9,4.9 169.7,4.9 169.7,11.6 151.4,11.6 151.4,18.6 167.5,18.6 167.5,25.3 151.4,25.3 
					151.4,32.5 170,32.5 170,39.2 143.9,39.2 				"/>
			</g>
		</g>
	</g>
	<g>
		<g>
			<g>
				<g>
					<path fill="#D2D4D2" d="M171.4,34.2l4.5-5.3c3.1,2.6,6.3,4.2,10.2,4.2c3.1,0,5-1.2,5-3.2v-0.1c0-1.9-1.2-2.9-6.9-4.4
						c-6.9-1.8-11.4-3.7-11.4-10.5v-0.1c0-6.2,5-10.3,12-10.3c5,0,9.2,1.6,12.7,4.4l-3.9,5.7c-3-2.1-6-3.4-8.9-3.4
						c-2.9,0-4.4,1.3-4.4,3v0.1c0,2.3,1.5,3,7.4,4.5c6.9,1.8,10.9,4.3,10.9,10.3V29c0,6.8-5.2,10.6-12.6,10.6
						C180.8,39.7,175.5,37.9,171.4,34.2"/>
				</g>
			</g>
		</g>
	</g>
	<g>
	</g>
	<g>
		<g>
			<g>
				<rect x="202.5" y="4.9" fill="#D2D4D2" width="7.5" height="34.3"/>
			</g>
		</g>
	</g>
	<g>
		<g>
			<g>
				<g>
					<path fill="#D2D4D2" d="M213.3,34.2l4.5-5.3c3.1,2.6,6.3,4.2,10.2,4.2c3.1,0,5-1.2,5-3.2v-0.1c0-1.9-1.2-2.9-6.9-4.4
						c-6.9-1.8-11.4-3.7-11.4-10.5v-0.1c0-6.2,5-10.3,12-10.3c5,0,9.3,1.6,12.7,4.4l-3.9,5.7c-3-2.1-6-3.4-8.9-3.4
						c-2.9,0-4.4,1.3-4.4,3v0.1c0,2.3,1.5,3,7.4,4.5c7,1.8,10.9,4.3,10.9,10.3V29c0,6.8-5.2,10.6-12.6,10.6
						C222.7,39.7,217.4,37.9,213.3,34.2"/>
				</g>
			</g>
		</g>
	</g>
	<g>
		<g>
			<g>
				<polygon fill="#D2D4D2" points="244.7,4.9 248.7,4.9 261.2,23.6 273.6,4.9 277.6,4.9 277.6,39.2 273.7,39.2 273.7,11.4 
					261.2,29.8 261,29.8 248.5,11.5 248.5,39.2 244.7,39.2 				"/>
			</g>
		</g>
	</g>
	<g>
		<g>
			<g>
				<polygon fill="#D2D4D2" points="284.4,4.9 309.1,4.9 309.1,8.4 288.2,8.4 288.2,20.1 306.9,20.1 306.9,23.7 288.2,23.7 
					288.2,35.7 309.4,35.7 309.4,39.2 284.4,39.2 				"/>
			</g>
		</g>
	</g>
	<g>
		<g>
			<g>
				<g>
					<path fill="#D2D4D2" d="M326.1,35.6c8.7,0,14.2-5.9,14.2-13.5V22c0-7.6-5.5-13.6-14.2-13.6h-8v27.1H326.1z M314.2,4.9h11.9
						c10.8,0,18.2,7.4,18.2,17V22c0,9.7-7.4,17.1-18.2,17.1h-11.9V4.9z"/>
				</g>
			</g>
		</g>
	</g>
	<g>
		<g>
			<g>
				<rect x="350" y="4.9" fill="#D2D4D2" width="3.9" height="34.3"/>
			</g>
		</g>
	</g>
	<g>
		<g>
			<g>
				<path fill="#D2D4D2" d="M383.2,26.6l-7.8-17.5l-7.8,17.5H383.2z M373.7,4.7h3.6l15.6,34.5h-4.2l-4-9.1h-18.7l-4.1,9.1h-4
					L373.7,4.7z"/>
			</g>
		</g>
	</g>
	<g>
		<g>
			<g>
				<g>
					<path fill="#ED037C" d="M17.6,2.5c9.6-0.7,16.3,5,18.8,12.1c0.6,1.6,1.7,5-1.1,4.7c-1.1-0.1-1.3-1.8-1.8-3.2
						C31.3,9.5,24.3,3.8,14.7,6c-1.2,0.3-3,1.2-3.4-0.3C10.5,3,15.6,2.7,17.6,2.5"/>
				</g>
			</g>
		</g>
		<g>
			<g>
				<g>
					<path fill="#ED037C" d="M16.2,8.3c9-0.7,15.1,5.5,15.6,14c0.2,2.9-0.4,5.8-1.4,8.4c-2.6,6.8-8,12.1-16,13.6
						c-2.8,0.5-7.7,0.6-7.9-1.3c-0.1-0.9,0.5-1.9,2.2-1.8c1.1,0.1,2.6,0.3,3.8,0.3c2.4-0.1,4.8-0.9,6.4-1.7
						c4.9-2.5,9.3-7.7,9.9-14.6c0.8-9.8-7.5-17-16.9-12.6C7,14.7,2.7,20,3.1,26.8c0.4,5.2,4.4,9.8,10.6,8.7c5-0.9,8.9-4.9,9.3-10.4
						c0.2-3.3-0.9-5.7-3-7c-1.8-1.1-4.5-1.1-6.2-0.3c-3.2,1.4-6.2,5.9-4.5,9.8c0.6,1.4,2.6,2.7,4.7,2c1.4-0.4,2.5-1.7,2.9-2.8
						c0.6-1.6,0.4-3.7-1-3.7c-1.4,0-1,1.1-1.3,2.4c-0.2,1-1.1,1.7-2.2,1.4c-1.4-0.4-0.9-3.2-0.4-4.2c0.8-1.6,2.3-2.9,4.7-2.7
						c2.4,0.2,3.9,2.5,3.5,5.7c-0.5,4.5-6.2,9.4-11.5,6.2c-1-0.6-2.2-2-2.6-3.3c-1.8-5,1.1-9.6,3.7-11.9c1.3-1.1,3.2-2.3,5.7-2.6
						c2.5-0.3,4.7,0.3,6.5,1.6c3.6,2.5,4.6,7.5,3.4,12.1c-1.2,4.4-4,7.4-7.3,9.3c-1.7,0.9-4,1.7-6.7,1.7C4.5,38.6-0.3,33.1,0,25.4
						c0.2-5,2.4-8.6,5.1-11.5C7.7,11,11.8,8.7,16.2,8.3"/>
				</g>
			</g>
		</g>
	</g>
	<g>
		<g>
			<g>
				<polygon fill="#D2D4D2" points="389.1,5.2 386.9,5.2 386.9,4.5 392.1,4.5 392.1,5.2 389.9,5.2 389.9,11.2 389.1,11.2 				"/>
			</g>
		</g>
	</g>
	<g>
		<g>
			<g>
				<polygon fill="#D2D4D2" points="393.6,4.5 394.3,4.5 396.8,8.1 399.2,4.5 400,4.5 400,11.2 399.2,11.2 399.2,5.7 396.8,9.3 
					396.8,9.3 394.3,5.8 394.3,11.2 393.6,11.2 				"/>
			</g>
		</g>
	</g>
</g>
</svg>
